<?xml version="1.0" encoding="iso-8859-1"?>
<!-- Generator: Adobe Illustrator 19.0.0, SVG Export Plug-In . SVG Version: 6.00 Build 0)  -->
<svg version="1.1" id="Layer_1" xmlns="http://www.w3.org/2000/svg" xmlns:xlink="http://www.w3.org/1999/xlink" x="0px" y="0px"
	 viewBox="0 0 512 512" style="enable-background:new 0 0 512 512;" xml:space="preserve">
<g>
	<g>
		<path d="M497.784,47.577H14.216C6.365,47.577,0,53.942,0,61.793v79.864v304.305v4.245c0,7.852,6.365,14.216,14.216,14.216h483.568
			c7.852,0,14.216-6.365,14.216-14.216v-4.245V141.659V61.793C512,53.942,505.635,47.577,497.784,47.577z M28.432,76.01h455.135
			v58.817L370.02,225.699c-11.037-18.205-29.646-31-51.21-33.9c-0.107-0.014-0.215-0.026-0.321-0.04
			c-1.261-0.163-2.532-0.293-3.813-0.388c-0.307-0.023-0.613-0.05-0.921-0.07c-1.419-0.087-2.846-0.145-4.285-0.145
			c-22.766,0-41.774,14.385-53.269,25.792c-11.273-11.465-30.08-25.792-53.673-25.792c-1.44,0-2.866,0.058-4.285,0.145
			c-0.307,0.02-0.613,0.045-0.92,0.07c-1.282,0.095-2.556,0.225-3.818,0.388c-0.104,0.014-0.209,0.026-0.313,0.04
			c-21.563,2.9-40.172,15.693-51.211,33.9L28.432,134.826V76.01z M352.285,265.996c-0.262,9.958-3.419,18.917-10.167,29.186
			c-0.233,0.354-0.513,0.742-0.779,1.12c-0.172,0.245-0.318,0.471-0.503,0.724c-2.695,3.692-6.811,8.392-11.899,13.662
			c-0.365,0.378-0.729,0.756-1.099,1.136c-7.988,8.179-18.215,17.642-29.216,26.931c-11.642,9.789-22.899,18.31-31.315,23.907
			c-2.508,1.649-4.68,2.987-6.507,4.029c-0.523,0.299-1.018,0.573-1.484,0.825c-0.526,0.283-1.015,0.536-1.466,0.759
			c-0.644,0.318-1.237,0.596-1.729,0.795c-5.169-2.064-16.306-9.538-29.311-19.657c-11.98-9.403-25.234-20.79-36.22-31.313
			c-2.865-2.768-5.65-5.543-8.301-8.301c-0.193-0.202-0.401-0.382-0.603-0.57c-5.133-5.361-9.27-10.207-11.808-14.058
			c-0.962-1.46-1.851-2.894-2.67-4.31c-5.325-9.209-7.641-17.597-7.503-27.011c0.01-0.724,0.036-1.454,0.075-2.191
			c0.176-3.3,0.728-6.507,1.586-9.589c0.301-1.089,0.644-2.158,1.019-3.209c0.08-0.219,0.165-0.435,0.247-0.653
			c0.27-0.719,0.564-1.423,0.867-2.122c0.336-0.766,0.688-1.523,1.065-2.265c0.087-0.175,0.173-0.348,0.263-0.522
			c5.372-10.283,14.535-18.229,25.349-21.738c0.192-0.064,0.384-0.124,0.577-0.183c0.779-0.24,1.567-0.452,2.361-0.645
			c0.583-0.139,1.169-0.274,1.758-0.388c0.364-0.071,0.729-0.141,1.096-0.202c0.911-0.151,1.828-0.276,2.754-0.364
			c0.222-0.021,0.446-0.036,0.67-0.053c1.038-0.081,2.08-0.138,3.132-0.138c23.15,0,41.477,26.817,41.633,27.051
			c2.596,3.911,6.957,6.289,11.652,6.353c4.07,0.047,7.998-1.668,10.726-4.67c0.39-0.429,0.755-0.884,1.093-1.363
			c4.997-7.101,23.407-27.369,41.838-27.369c1.052,0,2.094,0.057,3.132,0.138c0.223,0.018,0.446,0.031,0.67,0.053
			c0.925,0.088,1.844,0.213,2.755,0.364c0.367,0.061,0.732,0.131,1.096,0.202c0.591,0.114,1.177,0.249,1.761,0.39
			c0.792,0.193,1.578,0.405,2.354,0.644c0.196,0.06,0.392,0.121,0.587,0.183c10.816,3.511,19.981,11.461,25.352,21.748
			c0.082,0.161,0.163,0.323,0.245,0.483c0.384,0.758,0.745,1.531,1.088,2.313c0.297,0.685,0.586,1.376,0.85,2.081
			c0.087,0.227,0.176,0.455,0.26,0.684c0.372,1.042,0.711,2.101,1.011,3.18c0.863,3.088,1.414,6.301,1.592,9.607
			C352.3,263.13,352.322,264.573,352.285,265.996z M28.432,171.244l103.539,82.862c-0.267,1.987-0.475,3.996-0.584,6.033
			c-1.251,23.458,7.818,40.155,14.749,50.675c1.463,2.219,3.254,4.61,5.3,7.121l-123.004,98.44V171.244z M49.427,435.992v-0.001
			l121.574-97.296c8.929,8.585,18.7,17.176,27.463,24.426c0.624,0.516,1.218,0.999,1.828,1.5c0.112,0.092,0.223,0.183,0.336,0.276
			c3.112,2.55,6.072,4.927,8.845,7.098c11.418,8.935,20.049,14.776,26.618,18.598c12.304,7.22,17.177,7.228,20.015,7.228
			c2.872,0,7.805-0.007,20.095-7.202c8.18-4.747,19.55-12.644,35.441-25.711c0.067-0.055,0.134-0.111,0.2-0.165
			c0.631-0.519,1.247-1.022,1.892-1.557c8.713-7.233,18.441-15.823,27.343-24.426l121.496,97.233H49.427z M483.569,416.376
			l-122.988-98.429c2.036-2.515,3.824-4.913,5.293-7.145c0-0.001,0.001-0.003,0.003-0.004c6.928-10.54,15.992-27.258,14.737-50.661
			c-0.109-2.036-0.317-4.043-0.584-6.031l103.541-82.863V416.376z"/>
	</g>
</g>
<g>
	<g>
		<path d="M328.734,109.85H140.847c-7.852,0-14.216,6.365-14.216,14.216c0,7.852,6.365,14.216,14.216,14.216h187.887
			c7.852,0,14.216-6.365,14.216-14.216C342.95,116.214,336.585,109.85,328.734,109.85z"/>
	</g>
</g>
<g>
	<g>
		<path d="M385.098,121.288c-0.185-0.91-0.469-1.805-0.825-2.658s-0.782-1.692-1.294-2.459c-0.526-0.768-1.123-1.507-1.777-2.161
			c-0.654-0.654-1.379-1.251-2.161-1.763c-0.768-0.512-1.592-0.953-2.445-1.308c-0.867-0.355-1.763-0.625-2.658-0.81
			c-1.834-0.37-3.725-0.37-5.559,0c-0.91,0.185-1.805,0.455-2.658,0.81c-0.867,0.355-1.692,0.796-2.459,1.308
			c-0.782,0.512-1.507,1.109-2.161,1.763c-0.654,0.654-1.251,1.393-1.763,2.161c-0.512,0.768-0.952,1.606-1.308,2.459
			s-0.626,1.749-0.81,2.658c-0.185,0.924-0.284,1.848-0.284,2.772c0,0.938,0.099,1.862,0.284,2.786
			c0.183,0.91,0.455,1.805,0.81,2.658s0.796,1.677,1.308,2.445c0.512,0.782,1.109,1.507,1.763,2.161
			c0.654,0.654,1.379,1.251,2.161,1.777c0.768,0.512,1.592,0.953,2.459,1.308c0.853,0.355,1.749,0.625,2.658,0.81
			c0.91,0.185,1.848,0.27,2.772,0.27s1.862-0.085,2.786-0.27c0.896-0.185,1.791-0.455,2.658-0.81
			c0.853-0.355,1.677-0.796,2.445-1.308c0.782-0.526,1.507-1.123,2.161-1.777c0.654-0.654,1.251-1.379,1.777-2.161
			c0.512-0.768,0.938-1.592,1.294-2.445s0.64-1.749,0.825-2.658c0.185-0.924,0.27-1.848,0.27-2.786
			C385.368,123.136,385.283,122.212,385.098,121.288z"/>
	</g>
</g>
<g>
</g>
<g>
</g>
<g>
</g>
<g>
</g>
<g>
</g>
<g>
</g>
<g>
</g>
<g>
</g>
<g>
</g>
<g>
</g>
<g>
</g>
<g>
</g>
<g>
</g>
<g>
</g>
<g>
</g>
</svg>
